<mxfile host="Electron" modified="2024-05-29T14:57:04.362Z" agent="Mozilla/5.0 (Windows NT 10.0; Win64; x64) AppleWebKit/537.36 (KHTML, like Gecko) draw.io/24.2.5 Chrome/120.0.6099.109 Electron/28.1.0 Safari/537.36" etag="2QLKR5zlFm5Xc7SDNLln" version="24.2.5" type="device">
  <diagram name="第 1 页" id="w8l3OP6cDBmus9e-CyY1">
    <mxGraphModel dx="627" dy="469" grid="1" gridSize="10" guides="1" tooltips="1" connect="1" arrows="1" fold="1" page="1" pageScale="1" pageWidth="827" pageHeight="1169" math="0" shadow="0">
      <root>
        <mxCell id="0" />
        <mxCell id="1" parent="0" />
        <mxCell id="SfPSz1izHYnbwhJMhi3X-1" value="&lt;span lang=&quot;EN-US&quot; style=&quot;font-size: 16px;&quot;&gt;lpCmdLine命令行&lt;/span&gt;" style="rounded=0;whiteSpace=wrap;html=1;fontFamily=Helvetica;fontSize=16;align=left;verticalAlign=top;" vertex="1" parent="1">
          <mxGeometry x="80" y="340" width="200" height="100" as="geometry" />
        </mxCell>
        <mxCell id="SfPSz1izHYnbwhJMhi3X-2" value="&quot;cmd1 cmd2 cmd3&quot;" style="rounded=0;whiteSpace=wrap;html=1;fontSize=16;" vertex="1" parent="1">
          <mxGeometry x="100" y="380" width="160" height="40" as="geometry" />
        </mxCell>
        <mxCell id="SfPSz1izHYnbwhJMhi3X-3" value="&lt;span lang=&quot;EN-US&quot; style=&quot;font-size: 16px;&quot;&gt;&lt;span style=&quot;font-size: 16px;&quot; lang=&quot;EN-US&quot;&gt;WCHAR* pCmd[]&lt;/span&gt;命令组&lt;/span&gt;" style="rounded=0;whiteSpace=wrap;html=1;fontFamily=Helvetica;fontSize=16;align=left;verticalAlign=top;" vertex="1" parent="1">
          <mxGeometry x="560" y="280" width="200" height="220" as="geometry" />
        </mxCell>
        <mxCell id="SfPSz1izHYnbwhJMhi3X-4" value="L&quot;cmd1&quot;" style="rounded=0;whiteSpace=wrap;html=1;fontSize=16;" vertex="1" parent="1">
          <mxGeometry x="580" y="320" width="160" height="40" as="geometry" />
        </mxCell>
        <mxCell id="SfPSz1izHYnbwhJMhi3X-5" value="L&quot;cmd2&quot;" style="rounded=0;whiteSpace=wrap;html=1;fontSize=16;" vertex="1" parent="1">
          <mxGeometry x="580" y="380" width="160" height="40" as="geometry" />
        </mxCell>
        <mxCell id="SfPSz1izHYnbwhJMhi3X-6" value="L&quot;cmd3&quot;" style="rounded=0;whiteSpace=wrap;html=1;fontSize=16;" vertex="1" parent="1">
          <mxGeometry x="580" y="440" width="160" height="40" as="geometry" />
        </mxCell>
        <mxCell id="SfPSz1izHYnbwhJMhi3X-7" value="" style="shape=flexArrow;endArrow=classic;html=1;rounded=0;" edge="1" parent="1">
          <mxGeometry width="50" height="50" relative="1" as="geometry">
            <mxPoint x="300" y="389.71" as="sourcePoint" />
            <mxPoint x="540" y="390" as="targetPoint" />
          </mxGeometry>
        </mxCell>
        <mxCell id="SfPSz1izHYnbwhJMhi3X-8" value="&lt;span lang=&quot;EN-US&quot; style=&quot;font-size: 16px;&quot;&gt;CommandLineToArgvW&lt;/span&gt;" style="edgeLabel;html=1;align=center;verticalAlign=middle;resizable=0;points=[];fontFamily=Helvetica;fontSize=16;" vertex="1" connectable="0" parent="SfPSz1izHYnbwhJMhi3X-7">
          <mxGeometry x="-0.2018" y="2" relative="1" as="geometry">
            <mxPoint x="18" y="-18" as="offset" />
          </mxGeometry>
        </mxCell>
      </root>
    </mxGraphModel>
  </diagram>
</mxfile>
